<svg width="600" height="200" xmlns="http://www.w3.org/2000/svg"><defs><marker id="prefix__a" viewBox="0 0 10 10" refX="5" refY="5" markerWidth="6" markerHeight="6" orient="auto-start-reverse"><path d="M0 0l10 5-10 5z" fill="#d32f2f"/></marker><marker id="prefix__b" viewBox="0 0 10 10" refX="5" refY="5" markerWidth="6" markerHeight="6" orient="auto-start-reverse"><path d="M0 0l10 5-10 5z" fill="#0097a6"/></marker></defs><path fill="#ffebee" stroke="#d32f2f" stroke-width="2" d="M50 20h150v40H50z"/><text x="75" y="25" font-family="monospace" font-size="16" text-anchor="middle" fill="#d32f2f" transform="translate(50 20)">Bits 31 à 22</text><text x="75" y="-8" font-family="sans-serif" font-size="12" text-anchor="middle" fill="#666" transform="translate(50 20)">s = 10 bits</text><path fill="#e0f7fa" stroke="#0097a6" stroke-width="2" d="M200 20h350v40H200z"/><text x="325" y="25" font-family="monospace" font-size="16" text-anchor="middle" fill="#0097a6" transform="translate(50 20)">Bits 21 à 0</text><path d="M125 60c1.274 119.915 346.905-39.915 347.816 70.364" fill="none" stroke="#d32f2f" stroke-width="3" marker-end="url(#prefix__a)"/><path d="M375 60c3.277 119.733-152.367-39.551-149.818 70.546" fill="none" stroke="#0097a6" stroke-width="3" marker-end="url(#prefix__b)"/><g><path fill="#e0f7fa" stroke="#0097a6" stroke-width="2" d="M50 140h350v40H50z"/><text x="175" y="25" font-family="monospace" font-size="16" text-anchor="middle" fill="#0097a6" transform="translate(50 140)">Bits 21 à 0</text><path fill="#ffebee" stroke="#d32f2f" stroke-width="2" d="M400 140h150v40H400z"/><text x="425" y="25" font-family="monospace" font-size="16" text-anchor="middle" fill="#d32f2f" transform="translate(50 140)">Bits 31 à 22</text></g><path d="M317.476 100.485s4.005 35.862 0 0z" fill="#7f8c8d"/></svg>